{"asset":{"version":"2.0","generator":"THREE.GLTFExporter"},"scenes":[{"name":"default","nodes":[0]}],"scene":0,"nodes":[{"name":"cleaningCabinetDoor","extras":{"data":{"name":"cleaningCabinetDoor","points":[{"name":"Origin","pos":{"x":0,"y":0,"z":0}}],"billboard":{"enabled":false,"y":false},"directional":{"enabled":false,"mode":"cameraAngle","angles":[]},"custom":[],"instances":[{"name":"cleaningCabinetDoor","uuid":"CE6BA780-327C-4D9D-963E-E7C97E7A9EBF","parent":null,"pos":{"x":0,"y":0,"z":0},"rot":{"x":0,"y":0,"z":0,"order":"XYZ"},"sca":{"x":1,"y":1,"z":1},"custom":[]}]}},"mesh":0}],"bufferViews":[{"buffer":0,"byteOffset":0,"byteLength":288,"target":34962,"byteStride":12},{"buffer":0,"byteOffset":288,"byteLength":288,"target":34962,"byteStride":12},{"buffer":0,"byteOffset":576,"byteLength":192,"target":34962,"byteStride":8},{"buffer":0,"byteOffset":768,"byteLength":192,"target":34962,"byteStride":8},{"buffer":0,"byteOffset":960,"byteLength":72,"target":34963}],"buffers":[{"byteLength":1032,"uri":"data:application/octet-stream;base64,"}],"accessors":[{"bufferView":0,"componentType":5126,"count":24,"max":[0.0625,1.125,0.625],"min":[-5.551115123125783e-17,-5.551115123125783e-17,0],"type":"VEC3"},{"bufferView":1,"componentType":5126,"count":24,"max":[1,1,1],"min":[-1,-1,-1],"type":"VEC3"},{"bufferView":2,"componentType":5126,"count":24,"max":[1,0.5],"min":[0.875,0.375],"type":"VEC2"},{"bufferView":3,"componentType":5126,"count":24,"max":[-1,0],"min":[-1,0],"type":"VEC2"},{"bufferView":4,"componentType":5123,"count":36,"max":[23],"min":[0],"type":"SCALAR"}],"materials":[{"pbrMetallicRoughness":{"metallicFactor":0,"roughnessFactor":1,"baseColorTexture":{"index":0}},"alphaMode":"MASK","alphaCutoff":0.01,"name":"Duck_Tex_0"}],"textures":[{"sampler":0,"source":0,"name":"Duck_Tex_0"}],"samplers":[{"magFilter":9728,"minFilter":9728,"wrapS":33071,"wrapT":33071}],"images":[{"mimeType":"image/png","uri":"Duck_Tex_0.png"}],"meshes":[{"primitives":[{"mode":4,"attributes":{"POSITION":0,"NORMAL":1,"TEXCOORD_0":2,"_UVANIMATION":3},"indices":4,"material":0}]}]}