{"asset":{"version":"2.0","generator":"THREE.GLTFExporter"},"scenes":[{"name":"default","nodes":[0]}],"scene":0,"nodes":[{"name":"door piece 2","extras":{"data":{"name":"door piece 2","points":[{"name":"Origin","pos":{"x":0,"y":0,"z":0}}],"billboard":{"enabled":false,"y":false},"directional":{"enabled":false,"mode":"cameraAngle","angles":[]},"custom":[],"instances":[{"name":"door piece 2","uuid":"A7A68D83-A997-434B-B0A3-9F4805AD5073","parent":null,"pos":{"x":0,"y":0,"z":-0.25},"rot":{"x":0,"y":0,"z":0,"order":"XYZ"},"sca":{"x":1,"y":1,"z":1},"custom":[]}]}},"mesh":0}],"bufferViews":[{"buffer":0,"byteOffset":0,"byteLength":1104,"target":34962,"byteStride":12},{"buffer":0,"byteOffset":1104,"byteLength":1104,"target":34962,"byteStride":12},{"buffer":0,"byteOffset":2208,"byteLength":736,"target":34962,"byteStride":8},{"buffer":0,"byteOffset":2944,"byteLength":736,"target":34962,"byteStride":8},{"buffer":0,"byteOffset":3680,"byteLength":276,"target":34963}],"buffers":[{"byteLength":3956,"uri":"data:application/octet-stream;base64,"}],"accessors":[{"bufferView":0,"componentType":5126,"count":92,"max":[-4.440892098500626e-16,3.5,0.25],"min":[-2,-0.5,0],"type":"VEC3"},{"bufferView":1,"componentType":5126,"count":92,"max":[1,0.7071067690849304,1],"min":[0,-0.7071067690849304,-1],"type":"VEC3"},{"bufferView":2,"componentType":5126,"count":92,"max":[1,0.5],"min":[0.125,0],"type":"VEC2"},{"bufferView":3,"componentType":5126,"count":92,"max":[-1,0],"min":[-1,0],"type":"VEC2"},{"bufferView":4,"componentType":5123,"count":138,"max":[91],"min":[0],"type":"SCALAR"}],"materials":[{"pbrMetallicRoughness":{"metallicFactor":0,"roughnessFactor":1,"baseColorTexture":{"index":0}},"alphaMode":"MASK","alphaCutoff":0.01,"name":"Duck_Tex_0"}],"textures":[{"sampler":0,"source":0,"name":"Duck_Tex_0"}],"samplers":[{"magFilter":9728,"minFilter":9728,"wrapS":33071,"wrapT":33071}],"images":[{"mimeType":"image/png","uri":"Duck_Tex_0.png"}],"meshes":[{"primitives":[{"mode":4,"attributes":{"POSITION":0,"NORMAL":1,"TEXCOORD_0":2,"_UVANIMATION":3},"indices":4,"material":0}]}]}