{"asset":{"version":"2.0","generator":"THREE.GLTFExporter"},"scenes":[{"name":"default","nodes":[0]}],"scene":0,"nodes":[{"name":"indicatorLight","extras":{"data":{"name":"indicatorLight","points":[{"name":"Origin","pos":{"x":0,"y":0,"z":0}}],"billboard":{"enabled":false,"y":false},"directional":{"enabled":false,"mode":"cameraAngle","angles":[]},"custom":[],"instances":[{"name":"indicatorLight","uuid":"FC5CD924-F22A-4C87-B1C0-773B25643B5F","parent":null,"pos":{"x":0.5,"y":0.75,"z":0.5},"rot":{"x":0,"y":0,"z":0,"order":"XYZ"},"sca":{"x":1,"y":1,"z":1},"custom":[]}]}},"mesh":0}],"bufferViews":[{"buffer":0,"byteOffset":0,"byteLength":144,"target":34962,"byteStride":12},{"buffer":0,"byteOffset":144,"byteLength":144,"target":34962,"byteStride":12},{"buffer":0,"byteOffset":288,"byteLength":96,"target":34962,"byteStride":8},{"buffer":0,"byteOffset":384,"byteLength":96,"target":34962,"byteStride":8},{"buffer":0,"byteOffset":480,"byteLength":24,"target":34963}],"buffers":[{"byteLength":504,"uri":"data:application/octet-stream;base64,"}],"accessors":[{"bufferView":0,"componentType":5126,"count":12,"max":[0.11249999701976776,0.11249999701976776,0.11249999701976776],"min":[-0.11249999701976776,-0.11249999701976776,0],"type":"VEC3"},{"bufferView":1,"componentType":5126,"count":12,"max":[0.5773502588272095,0.5773502588272095,0.5773502588272095],"min":[-0.5773502588272095,-0.5773502588272095,0.5773502588272095],"type":"VEC3"},{"bufferView":2,"componentType":5126,"count":12,"max":[0.875,0.125],"min":[0.75,0],"type":"VEC2"},{"bufferView":3,"componentType":5126,"count":12,"max":[-1,0],"min":[-1,0],"type":"VEC2"},{"bufferView":4,"componentType":5123,"count":12,"max":[11],"min":[0],"type":"SCALAR"}],"materials":[{"pbrMetallicRoughness":{"metallicFactor":0,"roughnessFactor":1,"baseColorTexture":{"index":0}},"alphaMode":"MASK","alphaCutoff":0.01,"name":"Duck_Tex_0"}],"textures":[{"sampler":0,"source":0,"name":"Duck_Tex_0"}],"samplers":[{"magFilter":9728,"minFilter":9728,"wrapS":33071,"wrapT":33071}],"images":[{"mimeType":"image/png","uri":"Duck_Tex_0.png"}],"meshes":[{"primitives":[{"mode":4,"attributes":{"POSITION":0,"NORMAL":1,"TEXCOORD_0":2,"_UVANIMATION":3},"indices":4,"material":0}]}]}