{"asset":{"version":"2.0","generator":"THREE.GLTFExporter"},"scenes":[{"name":"default","nodes":[0]}],"scene":0,"nodes":[{"mesh":0}],"bufferViews":[{"buffer":0,"byteOffset":0,"byteLength":456,"target":34962,"byteStride":12},{"buffer":0,"byteOffset":456,"byteLength":456,"target":34962,"byteStride":12},{"buffer":0,"byteOffset":912,"byteLength":304,"target":34962,"byteStride":8},{"buffer":0,"byteOffset":1216,"byteLength":304,"target":34962,"byteStride":8},{"buffer":0,"byteOffset":1520,"byteLength":144,"target":34963}],"buffers":[{"byteLength":1664,"uri":"data:application/octet-stream;base64,"}],"accessors":[{"bufferView":0,"componentType":5126,"count":38,"max":[0.10000000149011612,0.30000001192092896,8.88178432935015e-17],"min":[-0.10000000149011612,0,-0.02500000037252903],"type":"VEC3"},{"bufferView":1,"componentType":5126,"count":38,"max":[1,1,1],"min":[-1,-1,-1],"type":"VEC3"},{"bufferView":2,"componentType":5126,"count":38,"max":[1,1],"min":[0,0],"type":"VEC2"},{"bufferView":3,"componentType":5126,"count":38,"max":[-1,0],"min":[-1,0],"type":"VEC2"},{"bufferView":4,"componentType":5123,"count":72,"max":[37],"min":[0],"type":"SCALAR"}],"materials":[{"pbrMetallicRoughness":{"metallicFactor":0,"roughnessFactor":1,"baseColorTexture":{"index":0}},"alphaMode":"MASK","alphaCutoff":0.01,"name":"Duck_Tex_0"}],"textures":[{"sampler":0,"source":0,"name":"Duck_Tex_0"}],"samplers":[{"magFilter":9728,"minFilter":9728,"wrapS":33071,"wrapT":33071}],"images":[{"mimeType":"image/png","uri":"Duck_Tex_0.png"}],"meshes":[{"primitives":[{"mode":4,"attributes":{"POSITION":0,"NORMAL":1,"TEXCOORD_0":2,"_UVANIMATION":3},"indices":4,"material":0}]}]}