{"asset":{"version":"2.0","generator":"THREE.GLTFExporter"},"scenes":[{"name":"default","nodes":[0]}],"scene":0,"nodes":[{"name":"lightCeiling_tube","extras":{"data":{"name":"lightCeiling_tube","points":[{"name":"Origin","pos":{"x":0,"y":0,"z":0}}],"billboard":{"enabled":false,"y":false},"directional":{"enabled":false,"mode":"cameraAngle","angles":[]},"custom":[],"instances":[{"name":"lightCeiling_tube","uuid":"26C86C04-C1D1-465E-A867-A2E6F36F5508","parent":null,"pos":{"x":0,"y":0,"z":0},"rot":{"x":0,"y":0,"z":0,"order":"XYZ"},"sca":{"x":1,"y":1,"z":1},"custom":[]}]}},"mesh":0}],"bufferViews":[{"buffer":0,"byteOffset":0,"byteLength":240,"target":34962,"byteStride":12},{"buffer":0,"byteOffset":240,"byteLength":240,"target":34962,"byteStride":12},{"buffer":0,"byteOffset":480,"byteLength":160,"target":34962,"byteStride":8},{"buffer":0,"byteOffset":640,"byteLength":160,"target":34962,"byteStride":8},{"buffer":0,"byteOffset":800,"byteLength":48,"target":34963}],"buffers":[{"byteLength":848,"uri":"data:application/octet-stream;base64,"}],"accessors":[{"bufferView":0,"componentType":5126,"count":20,"max":[0.15000000596046448,-0.05000000074505806,-0.10000000149011612],"min":[0.05000000074505806,-0.15000060200691223,-0.8000049591064453],"type":"VEC3"},{"bufferView":1,"componentType":5126,"count":20,"max":[0.7071110010147095,0.7071067690849304,0.00001070516009349376],"min":[-0.7071816921234131,-0.7071816921234131,-0.000010705223758122884],"type":"VEC3"},{"bufferView":2,"componentType":5126,"count":20,"max":[1,0.125],"min":[0.875,0],"type":"VEC2"},{"bufferView":3,"componentType":5126,"count":20,"max":[-1,0],"min":[-1,0],"type":"VEC2"},{"bufferView":4,"componentType":5123,"count":24,"max":[19],"min":[0],"type":"SCALAR"}],"materials":[{"pbrMetallicRoughness":{"metallicFactor":0,"roughnessFactor":1,"baseColorTexture":{"index":0}},"alphaMode":"MASK","alphaCutoff":0.01,"name":"Duck_Tex_0"}],"textures":[{"sampler":0,"source":0,"name":"Duck_Tex_0"}],"samplers":[{"magFilter":9728,"minFilter":9728,"wrapS":33071,"wrapT":33071}],"images":[{"mimeType":"image/png","uri":"Duck_Tex_0.png"}],"meshes":[{"primitives":[{"mode":4,"attributes":{"POSITION":0,"NORMAL":1,"TEXCOORD_0":2,"_UVANIMATION":3},"indices":4,"material":0}]}]}