{"asset":{"version":"2.0","generator":"THREE.GLTFExporter"},"scenes":[{"name":"default","nodes":[0]}],"scene":0,"nodes":[{"name":"containerFrame","extras":{"data":{"name":"containerFrame","points":[{"name":"Origin","pos":{"x":0,"y":0,"z":0}}],"billboard":{"enabled":false,"y":false},"directional":{"enabled":false,"mode":"cameraAngle","angles":[]},"custom":[],"instances":[{"name":"containerFrame","uuid":"81275CB4-1F26-4B71-A307-C075A186CD90","parent":null,"pos":{"x":0,"y":0,"z":0},"rot":{"x":0,"y":0,"z":0,"order":"XYZ"},"sca":{"x":1,"y":1,"z":1},"custom":[]}]}},"mesh":0}],"bufferViews":[{"buffer":0,"byteOffset":0,"byteLength":2844,"target":34962,"byteStride":12},{"buffer":0,"byteOffset":2844,"byteLength":2844,"target":34962,"byteStride":12},{"buffer":0,"byteOffset":5688,"byteLength":1896,"target":34962,"byteStride":8},{"buffer":0,"byteOffset":7584,"byteLength":708,"target":34963}],"buffers":[{"byteLength":8292,"uri":"data:application/octet-stream;base64,"}],"accessors":[{"bufferView":0,"componentType":5126,"count":237,"max":[2,3.4000000953674316,0],"min":[-4.440892164675075e-17,0,-1.2000000476837158],"type":"VEC3"},{"bufferView":1,"componentType":5126,"count":237,"max":[1,1,1],"min":[-1,-1,-1],"type":"VEC3"},{"bufferView":2,"componentType":5126,"count":237,"max":[1,0.875],"min":[0,0],"type":"VEC2"},{"bufferView":3,"componentType":5123,"count":354,"max":[236],"min":[0],"type":"SCALAR"}],"materials":[{"pbrMetallicRoughness":{"metallicFactor":0,"roughnessFactor":1,"baseColorTexture":{"index":0}},"alphaMode":"MASK","alphaCutoff":0.01,"name":"Duck_Tex_0"}],"textures":[{"sampler":0,"source":0,"name":"Duck_Tex_0"}],"samplers":[{"magFilter":9728,"minFilter":9728,"wrapS":33071,"wrapT":33071}],"images":[{"mimeType":"image/png","uri":"Duck_Tex_0.png"}],"meshes":[{"primitives":[{"mode":4,"attributes":{"POSITION":0,"NORMAL":1,"TEXCOORD_0":2},"indices":3,"material":0}]}]}