{"asset":{"version":"2.0","generator":"THREE.GLTFExporter"},"scenes":[{"name":"default","nodes":[0]}],"scene":0,"nodes":[{"mesh":0}],"bufferViews":[{"buffer":0,"byteOffset":0,"byteLength":3060,"target":34962,"byteStride":12},{"buffer":0,"byteOffset":3060,"byteLength":3060,"target":34962,"byteStride":12},{"buffer":0,"byteOffset":6120,"byteLength":2040,"target":34962,"byteStride":8},{"buffer":0,"byteOffset":8160,"byteLength":2040,"target":34962,"byteStride":8},{"buffer":0,"byteOffset":10200,"byteLength":720,"target":34963}],"buffers":[{"byteLength":10920,"uri":"data:application/octet-stream;base64,"}],"accessors":[{"bufferView":0,"componentType":5126,"count":255,"max":[2,3,3],"min":[-2,-2.000189781188965,-3.000149965286255],"type":"VEC3"},{"bufferView":1,"componentType":5126,"count":255,"max":[1,0.9701424837112427,0.3511234521865845],"min":[-1,-0.9701424837112427,-0.35123303532600403],"type":"VEC3"},{"bufferView":2,"componentType":5126,"count":255,"max":[0.25,0.5],"min":[0,0],"type":"VEC2"},{"bufferView":3,"componentType":5126,"count":255,"max":[-1,0],"min":[-1,0],"type":"VEC2"},{"bufferView":4,"componentType":5123,"count":360,"max":[254],"min":[0],"type":"SCALAR"}],"materials":[{"pbrMetallicRoughness":{"metallicFactor":0,"roughnessFactor":1,"baseColorTexture":{"index":0}},"alphaMode":"MASK","alphaCutoff":0.01,"name":"Duck_Tex_0"}],"textures":[{"sampler":0,"source":0,"name":"Duck_Tex_0"}],"samplers":[{"magFilter":9728,"minFilter":9728,"wrapS":33071,"wrapT":33071}],"images":[{"mimeType":"image/png","uri":"Duck_Tex_0.png"}],"meshes":[{"primitives":[{"mode":4,"attributes":{"POSITION":0,"NORMAL":1,"TEXCOORD_0":2,"_UVANIMATION":3},"indices":4,"material":0}]}]}