{"asset":{"version":"2.0","generator":"THREE.GLTFExporter"},"scenes":[{"name":"default","nodes":[0]}],"scene":0,"nodes":[{"mesh":0}],"bufferViews":[{"buffer":0,"byteOffset":0,"byteLength":11028,"target":34962,"byteStride":12},{"buffer":0,"byteOffset":11028,"byteLength":11028,"target":34962,"byteStride":12},{"buffer":0,"byteOffset":22056,"byteLength":7352,"target":34962,"byteStride":8},{"buffer":0,"byteOffset":29408,"byteLength":7352,"target":34962,"byteStride":8},{"buffer":0,"byteOffset":36760,"byteLength":2700,"target":34963}],"buffers":[{"byteLength":39460,"uri":"data:application/octet-stream;base64,"}],"accessors":[{"bufferView":0,"componentType":5126,"count":919,"max":[9,4,3],"min":[-3,-1,-3],"type":"VEC3"},{"bufferView":1,"componentType":5126,"count":919,"max":[1,1,1],"min":[-1,-1,-1],"type":"VEC3"},{"bufferView":2,"componentType":5126,"count":919,"max":[0.375,1],"min":[0,0],"type":"VEC2"},{"bufferView":3,"componentType":5126,"count":919,"max":[-1,0],"min":[-1,0],"type":"VEC2"},{"bufferView":4,"componentType":5123,"count":1350,"max":[918],"min":[0],"type":"SCALAR"}],"materials":[{"pbrMetallicRoughness":{"metallicFactor":0,"roughnessFactor":1,"baseColorTexture":{"index":0}},"alphaMode":"MASK","alphaCutoff":0.01,"name":"Duck_Tex_0"}],"textures":[{"sampler":0,"source":0,"name":"Duck_Tex_0"}],"samplers":[{"magFilter":9728,"minFilter":9728,"wrapS":33071,"wrapT":33071}],"images":[{"mimeType":"image/png","uri":"Duck_Tex_0.png"}],"meshes":[{"primitives":[{"mode":4,"attributes":{"POSITION":0,"NORMAL":1,"TEXCOORD_0":2,"_UVANIMATION":3},"indices":4,"material":0}]}]}