{"asset":{"version":"2.0","generator":"THREE.GLTFExporter"},"scenes":[{"name":"default","nodes":[0]}],"scene":0,"nodes":[{"mesh":0}],"bufferViews":[{"buffer":0,"byteOffset":0,"byteLength":3672,"target":34962,"byteStride":12},{"buffer":0,"byteOffset":3672,"byteLength":3672,"target":34962,"byteStride":12},{"buffer":0,"byteOffset":7344,"byteLength":2448,"target":34962,"byteStride":8},{"buffer":0,"byteOffset":9792,"byteLength":2448,"target":34962,"byteStride":8},{"buffer":0,"byteOffset":12240,"byteLength":924,"target":34963}],"buffers":[{"byteLength":13164,"uri":"data:application/octet-stream;base64,"}],"accessors":[{"bufferView":0,"componentType":5126,"count":306,"max":[3,4,3],"min":[-3,-1.1102230246251565e-16,-3],"type":"VEC3"},{"bufferView":1,"componentType":5126,"count":306,"max":[0.5773502588272095,1,1],"min":[-0.7071067690849304,-1,-1.1102230246251565e-16],"type":"VEC3"},{"bufferView":2,"componentType":5126,"count":306,"max":[0.375,0.5],"min":[0,0],"type":"VEC2"},{"bufferView":3,"componentType":5126,"count":306,"max":[-1,0],"min":[-1,0],"type":"VEC2"},{"bufferView":4,"componentType":5123,"count":462,"max":[305],"min":[0],"type":"SCALAR"}],"materials":[{"pbrMetallicRoughness":{"metallicFactor":0,"roughnessFactor":1,"baseColorTexture":{"index":0}},"alphaMode":"MASK","alphaCutoff":0.01,"name":"Duck_Tex_0"}],"textures":[{"sampler":0,"source":0,"name":"Duck_Tex_0"}],"samplers":[{"magFilter":9728,"minFilter":9728,"wrapS":33071,"wrapT":33071}],"images":[{"mimeType":"image/png","uri":"Duck_Tex_0.png"}],"meshes":[{"primitives":[{"mode":4,"attributes":{"POSITION":0,"NORMAL":1,"TEXCOORD_0":2,"_UVANIMATION":3},"indices":4,"material":0}]}]}