{"asset":{"version":"2.0","generator":"THREE.GLTFExporter"},"scenes":[{"name":"default","nodes":[0]}],"scene":0,"nodes":[{"mesh":0}],"bufferViews":[{"buffer":0,"byteOffset":0,"byteLength":3000,"target":34962,"byteStride":12},{"buffer":0,"byteOffset":3000,"byteLength":3000,"target":34962,"byteStride":12},{"buffer":0,"byteOffset":6000,"byteLength":2000,"target":34962,"byteStride":8},{"buffer":0,"byteOffset":8000,"byteLength":2000,"target":34962,"byteStride":8},{"buffer":0,"byteOffset":10000,"byteLength":720,"target":34963}],"buffers":[{"byteLength":10720,"uri":"data:application/octet-stream;base64,"}],"accessors":[{"bufferView":0,"componentType":5126,"count":250,"max":[2,3,3],"min":[-2,-0.00018977215222548693,-3.000149965286255],"type":"VEC3"},{"bufferView":1,"componentType":5126,"count":250,"max":[1,1,0.00018523691687732935],"min":[-1,-1,-0.00018974368867930025],"type":"VEC3"},{"bufferView":2,"componentType":5126,"count":250,"max":[0.25,0.5],"min":[0,0],"type":"VEC2"},{"bufferView":3,"componentType":5126,"count":250,"max":[-1,0],"min":[-1,0],"type":"VEC2"},{"bufferView":4,"componentType":5123,"count":360,"max":[249],"min":[0],"type":"SCALAR"}],"materials":[{"pbrMetallicRoughness":{"metallicFactor":0,"roughnessFactor":0.9,"baseColorTexture":{"index":0}},"alphaMode":"MASK","alphaCutoff":0.01,"name":"Duck_Tex_0","extensions":{"KHR_materials_unlit":{}}}],"textures":[{"sampler":0,"source":0,"name":"Duck_Tex_0"}],"samplers":[{"magFilter":9728,"minFilter":9728,"wrapS":33071,"wrapT":33071}],"images":[{"mimeType":"image/png","uri":"data:image/png;base64,"}],"meshes":[{"primitives":[{"mode":4,"attributes":{"POSITION":0,"NORMAL":1,"TEXCOORD_0":2,"_UVANIMATION":3},"indices":4,"material":0}]}],"extensionsUsed":["KHR_materials_unlit"]}